<svg xmlns="http://www.w3.org/2000/svg" direction="ltr" width="780" height="140" viewBox="287 1876 780 140" stroke-linecap="round" stroke-linejoin="round" data-color-mode="light" class="tl-container tl-theme__force-sRGB tl-theme__light" style="background-color: transparent;"><defs/><g transform="matrix(1, 0, 0, 1, 287, 1715.8063)" opacity="1"><g data-lovart-layer-name="SVG 3"><g transform="scale(1, 1)"><g>
<g xmlns="http://www.w3.org/2000/svg" stroke-width="2.00" fill="none" stroke-linecap="butt">
<path stroke="#740644" vector-effect="non-scaling-stroke" d="   M 456.57 166.37   L 446.95 166.40"/>
<path stroke="#740644" vector-effect="non-scaling-stroke" d="   M 462.10 252.74   Q 462.61 251.24 462.50 248.86"/>
<path stroke="#740644" vector-effect="non-scaling-stroke" d="   M 462.93 241.33   Q 473.26 242.02 482.75 241.56   Q 483.08 241.54 483.26 241.31"/>
<path stroke="#740644" vector-effect="non-scaling-stroke" d="   M 418.06 216.44   L 418.40 208.31"/>
<path stroke="#740644" vector-effect="non-scaling-stroke" d="   M 433.91 170.73   Q 435.21 170.68 435.26 169.93"/>
<path stroke="#740644" vector-effect="non-scaling-stroke" d="   M 596.05 166.40   L 585.88 166.48"/>
<path stroke="#740644" vector-effect="non-scaling-stroke" d="   M 571.83 172.68   Q 572.74 172.65 573.00 171.76"/>
<path stroke="#740644" vector-effect="non-scaling-stroke" d="   M 573.00 171.76   L 573.38 171.72   A 1.52 1.50 22.6 0 0 574.10 171.43   Q 578.29 168.38 583.78 166.93"/>
<path stroke="#740644" vector-effect="non-scaling-stroke" d="   M 62.66 247.28   L 69.29 247.58"/>
<path stroke="#740644" vector-effect="non-scaling-stroke" d="   M 76.90 247.45   Q 78.83 247.91 80.35 247.39"/>
</g>
<path xmlns="http://www.w3.org/2000/svg" fill="#df017e" d="   M 456.57 166.37   L 446.95 166.40   Q 451.80 165.41 456.57 166.37   Z"/>
<path xmlns="http://www.w3.org/2000/svg" fill="#df017e" d="   M 596.05 166.40   L 585.88 166.48   Q 591.07 165.24 596.05 166.40   Z"/>
<path xmlns="http://www.w3.org/2000/svg" fill="#090A0A" d="   M 446.95 166.40   L 456.57 166.37   C 470.02 167.66 478.58 176.96 481.30 189.76   Q 483.30 199.12 483.07 209.40   A 0.65 0.64 0.4 0 1 482.42 210.03   L 462.57 210.03   A 0.86 0.86 0.0 0 1 461.71 209.13   C 461.98 202.41 461.67 193.85 457.89 188.20   A 3.78 3.78 0.0 0 0 457.18 187.42   C 451.92 183.17 445.31 184.73 442.78 191.11   Q 440.72 196.26 440.28 201.51   Q 438.06 227.76 440.01 252.80   C 440.41 257.99 441.16 262.43 443.32 267.18   C 445.76 272.56 454.05 272.35 457.51 268.94   C 460.94 265.55 461.92 257.71 462.10 252.74   Q 462.61 251.24 462.50 248.86   Q 462.11 244.77 462.93 241.33   Q 473.26 242.02 482.75 241.56   Q 483.08 241.54 483.26 241.31   Q 483.49 241.37 483.66 241.55   Q 483.81 241.70 483.82 241.97   Q 484.39 255.71 480.98 268.23   Q 478.60 276.95 472.61 282.85   C 464.40 290.92 448.75 291.52 438.36 287.64   C 429.88 284.47 425.05 277.70 422.16 269.31   Q 420.23 263.70 419.47 257.22   Q 417.08 236.91 418.06 216.44   L 418.40 208.31   Q 418.93 203.53 419.50 198.77   Q 420.69 188.74 424.97 180.72   Q 428.12 174.82 433.91 170.73   Q 435.21 170.68 435.26 169.93   Q 440.60 166.70 446.95 166.40   Z"/>
<path xmlns="http://www.w3.org/2000/svg" fill="#090A0A" d="   M 571.83 172.68   Q 572.74 172.65 573.00 171.76   L 573.38 171.72   A 1.52 1.50 22.6 0 0 574.10 171.43   Q 578.29 168.38 583.78 166.93   Q 584.81 166.42 585.88 166.48   L 596.05 166.40   C 616.30 168.80 622.78 186.99 623.08 204.71   A 1.30 1.30 0.0 0 1 621.78 206.03   L 604.63 206.03   A 0.80 0.79 90.0 0 1 603.84 205.23   L 603.84 201.94   A 1.15 1.14 26.3 0 0 603.60 201.24   L 603.27 200.82   A 2.01 1.97 20.7 0 1 602.84 199.89   C 601.84 194.17 600.30 189.30 594.64 187.47   C 587.48 185.15 581.43 190.57 580.69 197.73   C 579.88 205.49 584.19 211.68 591.20 214.33   Q 601.37 218.17 605.11 219.91   Q 622.88 228.17 625.02 247.73   Q 625.48 251.92 624.85 260.92   Q 624.41 267.06 621.05 274.55   C 617.87 281.61 610.80 286.79 602.96 288.79   C 587.25 292.81 572.06 287.50 564.86 272.64   Q 559.22 261.00 559.87 248.11   A 1.18 1.18 0.0 0 1 561.05 246.99   L 579.03 246.99   A 1.07 1.06 -88.7 0 1 580.09 248.11   Q 579.83 253.95 581.46 259.26   Q 584.15 267.98 592.44 268.32   C 597.20 268.52 601.37 265.87 602.79 261.38   C 604.64 255.54 604.84 249.42 600.94 244.58   Q 598.99 242.17 591.34 238.45   Q 583.92 234.85 580.99 233.40   Q 571.09 228.53 567.34 224.38   C 559.66 215.87 559.09 206.36 560.07 195.29   Q 561.23 182.33 571.83 172.68   Z"/>
<path xmlns="http://www.w3.org/2000/svg" fill="#090A0A" d="   M 62.66 247.28   L 69.29 247.58   Q 72.70 247.67 76.13 247.62   A 0.05 0.03 -28.6 0 0 76.17 247.55   Q 76.10 247.53 76.02 247.51   A 0.15 0.07 -42.1 0 1 76.10 247.31   Q 76.54 247.05 76.90 247.45   Q 78.83 247.91 80.35 247.39   Q 81.08 247.53 81.07 248.50   Q 81.00 256.42 82.82 260.64   Q 83.31 261.78 85.91 265.31   Q 87.77 267.85 92.80 268.73   Q 96.38 269.36 100.25 266.81   C 104.83 263.78 105.79 256.18 104.97 251.26   Q 103.85 244.50 97.28 241.21   C 88.75 236.94 79.25 232.80 72.58 228.11   Q 61.31 220.21 60.87 204.15   C 60.39 186.90 68.68 169.62 87.19 167.06   Q 97.56 165.63 106.37 169.54   Q 116.09 173.85 120.41 184.34   Q 124.49 194.27 124.05 205.52   A 1.24 1.23 3.9 0 1 122.69 206.70   Q 114.71 205.91 105.91 206.68   A 0.87 0.87 0.0 0 1 104.96 205.86   Q 104.68 201.00 103.19 196.07   C 101.00 188.81 94.21 184.68 87.25 188.82   Q 82.22 191.82 81.75 198.72   C 81.16 207.47 87.01 212.77 94.50 215.43   C 105.37 219.30 116.48 223.78 122.04 234.45   C 127.21 244.36 127.24 255.93 125.01 266.52   C 121.35 283.91 107.47 291.59 90.25 290.00   C 77.10 288.78 68.40 280.63 63.99 268.20   Q 60.99 259.75 60.93 249.48   Q 60.92 247.15 62.66 247.28   Z"/>
<path xmlns="http://www.w3.org/2000/svg" fill="#df017e" d="   M 583.78 166.93   Q 578.29 168.38 574.10 171.43   A 1.52 1.50 22.6 0 1 573.38 171.72   L 573.00 171.76   Q 577.75 167.71 583.78 166.93   Z"/>
<path xmlns="http://www.w3.org/2000/svg" fill="#090A0A" d="   M 493.82 263.51   L 493.82 169.90   A 0.94 0.94 0.0 0 1 494.76 168.96   L 550.95 168.96   A 0.94 0.94 0.0 0 1 551.89 169.90   L 551.89 191.34   A 0.94 0.94 0.0 0 1 550.95 192.28   L 516.85 192.28   A 0.94 0.94 0.0 0 0 515.91 193.22   L 515.91 213.92   A 0.94 0.94 0.0 0 0 516.85 214.86   L 546.65 214.86   A 0.94 0.94 0.0 0 1 547.59 215.80   L 547.59 237.07   A 0.94 0.94 0.0 0 1 546.65 238.01   L 516.84 238.01   A 0.94 0.94 0.0 0 0 515.90 238.95   L 515.90 262.99   A 0.94 0.94 0.0 0 0 516.84 263.93   L 550.99 263.93   A 0.94 0.94 0.0 0 1 551.93 264.87   L 551.93 286.27   A 0.94 0.94 0.0 0 1 550.99 287.21   L 516.68 287.21   A 0.94 0.94 0.0 0 1 515.74 286.27   L 515.74 265.39   A 0.94 0.94 0.0 0 0 514.80 264.45   L 494.76 264.45   A 0.94 0.94 0.0 0 1 493.82 263.51   Z"/>
<path xmlns="http://www.w3.org/2000/svg" fill="#090A0A" d="   M 696.70 170.15   L 696.70 191.02   A 1.26 1.26 0.0 0 1 695.44 192.28   L 675.34 192.28   A 1.26 1.26 0.0 0 0 674.08 193.54   L 674.08 286.23   A 1.26 1.26 0.0 0 1 672.82 287.49   L 652.61 287.49   A 1.26 1.26 0.0 0 1 651.35 286.23   L 651.35 193.59   A 1.26 1.26 0.0 0 0 650.09 192.33   L 630.42 192.33   A 1.26 1.26 0.0 0 1 629.16 191.07   L 629.16 170.15   A 1.26 1.26 0.0 0 1 630.42 168.89   L 695.44 168.89   A 1.26 1.26 0.0 0 1 696.70 170.15   Z"/>
<path xmlns="http://www.w3.org/2000/svg" fill="#090A0A" d="   M 168.50 214.97   Q 176.05 214.96 180.94 214.86   A 0.47 0.46 -1.4 0 0 181.39 214.39   Q 180.86 193.64 181.23 171.36   Q 181.27 168.99 183.75 168.98   Q 199.19 168.89 202.27 169.06   A 1.15 1.15 0.0 0 1 203.36 170.21   L 203.36 286.85   A 1.14 1.14 0.0 0 1 202.21 287.99   Q 193.01 287.84 183.08 287.96   C 181.85 287.98 181.07 287.25 181.32 285.89   L 181.30 285.88   A 0.04 0.03 -75.1 0 0 181.27 285.90   L 181.24 286.26   A 0.04 0.03 -43.5 0 1 181.17 286.26   L 181.30 238.98   A 0.60 0.60 0.0 0 0 180.68 238.38   Q 176.90 238.53 168.51 238.53   Q 160.12 238.54 156.35 238.39   A 0.60 0.60 0.0 0 0 155.73 238.99   L 155.91 286.27   A 0.04 0.03 43.5 0 1 155.84 286.27   L 155.81 285.91   A 0.04 0.03 75.1 0 0 155.78 285.89   L 155.76 285.90   C 156.01 287.26 155.23 287.99 154.00 287.98   Q 144.07 287.87 134.87 288.03   A 1.14 1.14 0.0 0 1 133.72 286.89   L 133.59 170.25   A 1.15 1.15 0.0 0 1 134.68 169.10   Q 137.76 168.92 153.20 169.00   Q 155.68 169.00 155.72 171.37   Q 156.12 193.65 155.61 214.40   A 0.47 0.46 1.4 0 0 156.07 214.88   Q 160.96 214.97 168.50 214.97   Z   M 181.30 204.18   Q 181.28 204.45 181.30 204.73   A 0.12 0.09 35.8 0 0 181.32 204.79   Q 181.33 204.80 181.34 204.81   A 0.02 0.02 0.0 0 0 181.38 204.80   L 181.38 204.18   A 0.04 0.04 0.0 0 0 181.30 204.18   Z   M 181.3088 205.5700   A 0.68 0.07 -90.1 0 0 181.2400 206.2501   A 0.68 0.07 -90.1 0 0 181.3112 206.9300   A 0.68 0.07 -90.1 0 0 181.3800 206.2499   A 0.68 0.07 -90.1 0 0 181.3088 205.5700   Z"/>
<path xmlns="http://www.w3.org/2000/svg" fill="#090A0A" d="   M 268.21 238.43   L 237.80 238.43   A 0.78 0.78 0.0 0 0 237.02 239.21   L 237.02 263.21   A 0.78 0.78 0.0 0 0 237.80 263.99   L 272.29 263.99   A 0.78 0.78 0.0 0 1 273.07 264.77   L 273.07 287.10   A 0.78 0.78 0.0 0 1 272.29 287.88   L 237.62 287.88   A 0.78 0.78 0.0 0 1 236.84 287.10   L 236.84 265.69   A 0.78 0.78 0.0 0 0 236.06 264.91   L 215.81 264.91   A 0.78 0.78 0.0 0 1 215.03 264.13   L 215.03 169.79   A 0.78 0.78 0.0 0 1 215.81 169.01   L 272.30 169.01   A 0.78 0.78 0.0 0 1 273.08 169.79   L 273.08 192.10   A 0.78 0.78 0.0 0 1 272.30 192.88   L 237.79 192.88   A 0.78 0.78 0.0 0 0 237.01 193.66   L 237.01 214.18   A 0.78 0.78 0.0 0 0 237.79 214.96   L 268.21 214.96   A 0.78 0.78 0.0 0 1 268.99 215.74   L 268.99 237.65   A 0.78 0.78 0.0 0 1 268.21 238.43   Z"/>
<path xmlns="http://www.w3.org/2000/svg" fill="#090A0A" d="   M 320.18 219.15   L 320.18 286.83   A 1.10 1.10 0.0 0 1 319.08 287.93   L 300.70 287.93   A 1.34 1.34 0.0 0 1 299.36 286.59   L 299.36 170.48   A 1.47 1.47 0.0 0 1 300.78 169.01   Q 303.36 168.90 315.80 169.01   C 318.09 169.03 321.02 168.46 321.23 170.95   Q 321.32 172.01 321.95 173.46   Q 337.98 210.83 348.90 237.35   A 0.39 0.38 -56.3 0 0 349.64 237.20   L 349.64 170.00   A 1.04 1.03 -0.0 0 1 350.68 168.97   L 368.87 168.97   A 1.57 1.56 0.0 0 1 370.44 170.53   L 370.44 286.78   A 1.16 1.16 0.0 0 1 369.28 287.94   L 351.03 287.94   A 1.96 1.96 0.0 0 1 349.23 286.75   Q 334.80 252.94 330.88 243.39   Q 328.89 238.51 326.25 232.68   Q 323.05 225.61 321.00 219.03   A 0.42 0.42 0.0 0 0 320.18 219.15   Z"/>
<rect xmlns="http://www.w3.org/2000/svg" fill="#df017e" x="-11.66" y="-11.95" transform="translate(394.46,181.70) rotate(-0.1)" width="23.32" height="23.90" rx="1.66"/>
<path xmlns="http://www.w3.org/2000/svg" fill="#df017e" d="   M 435.26 169.93   Q 435.21 170.68 433.91 170.73   Q 434.56 170.06 435.26 169.93   Z"/>
<path xmlns="http://www.w3.org/2000/svg" fill="#df017e" d="   M 573.00 171.76   Q 572.74 172.65 571.83 172.68   Q 572.51 171.99 573.00 171.76   Z"/>
<rect xmlns="http://www.w3.org/2000/svg" fill="#090A0A" x="382.86" y="205.89" width="23.12" height="82.04" rx="1.09"/>
<path xmlns="http://www.w3.org/2000/svg" fill="#df017e" d="   M 418.40 208.31   L 418.06 216.44   L 418.40 208.31   Z"/>
<rect xmlns="http://www.w3.org/2000/svg" fill="#df017e" x="-11.58" y="-12.12" transform="translate(707.37,226.13) rotate(-0.1)" width="23.16" height="24.24" rx="1.17"/>
<path xmlns="http://www.w3.org/2000/svg" fill="#df017e" d="   M 483.26 241.31   Q 483.08 241.54 482.75 241.56   Q 473.26 242.02 462.93 241.33   Q 472.64 240.69 482.24 241.05   Q 482.80 241.07 483.26 241.31   Z"/>
<path xmlns="http://www.w3.org/2000/svg" fill="#df017e" d="   M 69.29 247.58   L 62.66 247.28   L 74.61 247.43   A 0.04 0.04 0.0 0 1 74.63 247.51   Q 74.61 247.52 74.59 247.54   A 0.22 0.21 28.2 0 1 74.48 247.57   L 69.29 247.58   Z"/>
<path xmlns="http://www.w3.org/2000/svg" fill="#df017e" d="   M 80.35 247.39   Q 78.83 247.91 76.90 247.45   Q 78.36 246.81 80.35 247.39   Z"/>
<path xmlns="http://www.w3.org/2000/svg" fill="#df017e" d="   M 462.50 248.86   Q 462.61 251.24 462.10 252.74   Q 461.84 250.47 462.50 248.86   Z"/>
<rect xmlns="http://www.w3.org/2000/svg" fill="#df017e" x="-11.60" y="-11.97" transform="translate(707.38,275.78) rotate(0.1)" width="23.20" height="23.94" rx="0.80"/>
</g></g></g></g></svg>